<svg xmlns="http://www.w3.org/2000/svg" width="57" height="61" viewBox="0 0 57 61" fill="none"><path d="M37.0954 19.1403C31.2218 10.4992 23.3771 5.90653 19.2689 8.72054C18.8165 9.0391 18.4235 9.43444 18.1075 9.88862C18.1075 9.9218 8.59692 29.1686 8.59692 29.1686L3.28747 32.7657C2.47239 33.319 1.77431 34.0275 1.23311 34.8506C0.691899 35.6738 0.318173 36.5955 0.133276 37.5631C-0.0516205 38.5308 -0.044065 39.5253 0.155511 40.49C0.355087 41.4548 0.742774 42.3707 1.29642 43.1855L1.53535 43.5373C2.65446 45.1675 4.37114 46.2908 6.31306 46.6635C8.25498 47.0362 10.2655 46.6283 11.9087 45.5283L20.437 58.0918C21.6914 59.6382 24.1005 61.1779 27.0738 59.3661C27.6006 59.0245 28.0499 58.5764 28.3928 58.0506C28.7357 57.5247 28.9647 56.9329 29.0649 56.3131C29.185 55.6967 29.1817 55.0626 29.0553 54.4475C28.9288 53.8323 28.6817 53.2483 28.3282 52.7293L20.8153 41.6458C20.8153 41.6458 38.5754 40.2321 38.6418 40.2056C39.1963 40.0895 39.722 39.8639 40.1882 39.5419C42.2987 38.1084 43.0553 35.1019 42.3252 31.0733C41.6682 27.3634 39.8032 23.1622 37.0954 19.1403ZM3.46666 42.2298L3.22774 41.8781C2.84575 41.3157 2.57842 40.6835 2.44105 40.0177C2.30369 39.3519 2.29898 38.6655 2.42721 37.9979C2.55543 37.3303 2.81407 36.6945 3.18831 36.127C3.56255 35.5594 4.04505 35.0712 4.60819 34.6904L9.19423 31.5711L15.247 40.4843L10.661 43.6036C10.0985 43.9861 9.46613 44.254 8.80005 44.392C8.13398 44.5299 7.44724 44.5353 6.77911 44.4077C6.11097 44.2801 5.47452 44.0221 4.90615 43.6484C4.33778 43.2747 3.84863 42.7927 3.46666 42.2298ZM26.4168 54.0367C26.7795 54.5764 26.9133 55.238 26.7889 55.8763C26.6645 56.5146 26.292 57.0774 25.7531 57.4414C25.2123 57.8045 24.5497 57.9385 23.9104 57.8141C23.271 57.6897 22.707 57.3171 22.3418 56.7777L13.84 44.2541L17.258 41.9312L18.1606 41.8582L26.4168 54.0367ZM17.4438 39.5817L10.8468 29.8654L17.1385 17.0365C17.7491 20.6403 19.5344 24.921 22.3882 29.1221C25.2421 33.3232 28.5605 36.562 31.6798 38.4601L17.4438 39.5817ZM37.0224 38.0354C33.85 37.8296 28.6866 34.2524 24.3129 27.808C19.9392 21.3637 18.519 15.2644 19.4946 12.2314C19.6708 11.6621 20.0223 11.163 20.4991 10.8054C20.9759 10.4479 21.5534 10.2501 22.1493 10.2404C25.2952 10.2404 30.6511 13.8375 35.1508 20.4677C37.6861 24.1976 39.5311 28.1 40.0355 31.5114C41.0244 38.0354 37.0224 38.0354 37.0224 38.0354Z" fill="black"></path><path d="M28.7995 19.3858C27.9866 19.2262 27.15 19.2302 26.3386 19.3978C25.5272 19.5653 24.7574 19.8929 24.0741 20.3615C23.9482 20.4486 23.8406 20.5597 23.7576 20.6884C23.6746 20.8172 23.6178 20.961 23.5904 21.1116C23.563 21.2623 23.5655 21.4169 23.5978 21.5666C23.6301 21.7163 23.6916 21.8582 23.7788 21.9842C23.8659 22.1101 23.9771 22.2176 24.1058 22.3006C24.2345 22.3836 24.3783 22.4405 24.529 22.4679C24.6797 22.4953 24.8343 22.4928 24.984 22.4605C25.1337 22.4281 25.2755 22.3666 25.4015 22.2795C25.8342 21.9858 26.3206 21.7802 26.8328 21.6744C27.3449 21.5686 27.8729 21.5648 28.3866 21.6631C28.9003 21.7614 29.3896 21.9599 29.8265 22.2473C30.2635 22.5347 30.6396 22.9053 30.9333 23.3381C31.227 23.7708 31.4326 24.2571 31.5384 24.7693C31.6441 25.2815 31.648 25.8095 31.5497 26.3232C31.4514 26.8369 31.2529 27.3262 30.9655 27.7631C30.6781 28.2001 30.3074 28.5761 29.8747 28.8698C29.6707 29.0108 29.5171 29.2133 29.4364 29.4477C29.3557 29.6822 29.3522 29.9364 29.4264 30.173C29.5006 30.4096 29.6485 30.6163 29.8486 30.7627C30.0487 30.9092 30.2904 30.9878 30.5384 30.987C30.775 30.9914 31.007 30.9218 31.2021 30.7879C32.2343 30.0886 33.0359 29.0987 33.5051 27.9435C33.9743 26.7883 34.09 25.5199 33.8377 24.2988C33.5854 23.0778 32.9764 21.9591 32.0877 21.0845C31.1991 20.2099 30.0709 19.6187 28.846 19.3858H28.7995Z" fill="black"></path><path d="M38.529 11.0634H38.6418C38.9291 11.0633 39.2061 10.9567 39.4194 10.7643C39.6327 10.5718 39.7671 10.3072 39.7966 10.0214L40.6926 1.31391C40.713 1.15994 40.7023 1.00344 40.6611 0.853681C40.62 0.703917 40.5492 0.563929 40.453 0.441999C40.3568 0.320069 40.2371 0.218674 40.101 0.143814C39.9649 0.068953 39.8152 0.0221471 39.6607 0.00616526C39.5062 -0.00981662 39.3501 0.00535021 39.2016 0.0507684C39.0531 0.0961866 38.9152 0.170934 38.796 0.270587C38.6769 0.37024 38.579 0.492775 38.508 0.630943C38.4371 0.76911 38.3946 0.920103 38.383 1.07499L37.4937 9.78913C37.4621 10.0954 37.5534 10.4016 37.7476 10.6406C37.9417 10.8795 38.2228 11.0316 38.529 11.0634Z" fill="black"></path><path d="M53.5414 9.27139C53.3709 9.01433 53.1056 8.83517 52.8034 8.773C52.5013 8.71083 52.1868 8.7707 51.9286 8.93955L43.8384 14.249C43.6283 14.3877 43.469 14.5909 43.3844 14.828C43.2998 15.0651 43.2946 15.3233 43.3695 15.5637C43.4443 15.804 43.5953 16.0135 43.7995 16.1607C44.0038 16.3078 44.2504 16.3846 44.502 16.3794C44.7368 16.3848 44.9679 16.3201 45.1657 16.1936L53.256 10.8841C53.507 10.7076 53.6779 10.4388 53.7314 10.1366C53.7848 9.83445 53.7165 9.52338 53.5414 9.27139Z" fill="black"></path><path d="M56.017 23.4478L46.606 21.7554C46.3024 21.7008 45.9895 21.7691 45.7362 21.9452C45.4829 22.1214 45.31 22.3909 45.2554 22.6945C45.2008 22.9981 45.2691 23.311 45.4452 23.5643C45.6214 23.8176 45.8909 23.9905 46.1945 24.0451L55.5989 25.7375H55.8046C56.1006 25.7461 56.3886 25.6415 56.6099 25.4448C56.8313 25.2482 56.9692 24.9745 56.9954 24.6796C57.0217 24.3847 56.9344 24.0909 56.7513 23.8583C56.5682 23.6256 56.3032 23.4717 56.0104 23.4279L56.017 23.4478Z" fill="black"></path></svg>