<svg xmlns="http://www.w3.org/2000/svg" width="61" height="46" viewBox="0 0 61 46" fill="none"><path d="M53.375 29.4543C50.8937 29.4543 45.75 30.8382 43.1426 31.5884C42.7966 27.9361 38.1238 26.6433 33.2949 25.6609C31.0908 25.2135 29.4501 24.4218 27.8641 23.6548C25.9082 22.7102 24.0615 21.8178 21.6042 21.8178C18.7904 21.8178 16.226 22.3942 14.7789 22.793C14.3964 21.4599 13.3111 20.3855 11.8694 20.0975L1.51904 18.0246C1.14923 17.95 0.759521 18.047 0.464172 18.2881C0.171324 18.5304 0 18.8909 0 19.2724V39.6363C0 40.3398 0.56842 40.9091 1.27087 40.9091H9.2334C10.8027 40.9091 12.1401 39.9093 12.715 38.5058C15.5627 39.8653 28.7225 46 34.3125 46C39.2419 46 49.3913 41.0035 56.1053 37.6974C57.8553 36.836 59.3022 36.1226 60.2405 35.7112C60.7021 35.5074 61 35.0499 61 34.5453C61 31.5474 57.8652 29.4543 53.375 29.4543ZM12.3807 24.0216L10.4919 37.2711C10.4025 37.8938 9.86139 38.3636 9.2334 38.3636H2.54163V20.8248L11.3729 22.5935C12.0332 22.7265 12.4775 23.3529 12.3807 24.0216ZM54.9834 35.4129C48.8749 38.4207 38.6512 43.4546 34.3125 43.4546C29.6908 43.4546 17.5508 38.0342 13.2643 35.9461C13.2595 35.9438 13.2542 35.9446 13.2494 35.9424L14.7447 25.4538C15.6707 25.1637 18.4998 24.3634 21.6041 24.3634C23.4806 24.3634 24.9277 25.0633 26.762 25.9481C28.4077 26.7436 30.2741 27.6447 32.7885 28.1567C38.3111 29.2779 40.6666 30.4275 40.6666 31.9998C40.6666 32.3105 40.5723 32.5019 40.3315 32.6822C39.5248 33.2875 36.3676 34.3042 24.5081 30.7793C23.8304 30.5829 23.1281 30.9644 22.9269 31.6381C22.7283 32.3118 23.1107 33.0202 23.7833 33.2203C29.6386 34.9579 34.1138 35.8242 37.2859 35.8242C39.3535 35.8242 40.87 35.4563 41.8505 34.7217C41.9349 34.6586 41.9967 34.5814 42.0734 34.5135C42.1534 34.5046 42.232 34.514 42.3122 34.4893C44.5586 33.7971 50.9252 31.9999 53.375 31.9999C55.4476 31.9999 57.6293 32.63 58.2697 33.8145C57.3836 34.2321 56.2642 34.784 54.9834 35.4129Z" fill="black"></path><path d="M40.0859 22.6294C40.3373 22.8765 40.6699 23 40.9999 23C41.33 23 41.6627 22.8765 41.914 22.6294L51.7148 13.0872C53.1875 11.6385 54 9.71439 54 7.66667C54 3.43898 50.5012 0 46.2 0C44.25 0 42.4193 0.706291 40.9999 1.97405C39.5807 0.706291 37.75 0 35.8 0C31.4988 0 28 3.43898 28 7.66667C28 9.71439 28.8124 11.6385 30.2903 13.091L40.0859 22.6294ZM35.8 2.55552C37.4428 2.55552 38.9561 3.31176 39.9564 4.63186C40.4491 5.27826 41.5509 5.27826 42.0436 4.63186C43.0439 3.31164 44.5572 2.55552 46.2 2.55552C49.0666 2.55552 51.4 4.84773 51.4 7.66667C51.4 9.03181 50.8592 10.3145 49.8817 11.2766L41.0001 19.9241L32.1234 11.2804C31.1408 10.3145 30.6 9.03181 30.6 7.66667C30.6 4.84785 32.9334 2.55552 35.8 2.55552Z" fill="black"></path></svg>