<svg xmlns="http://www.w3.org/2000/svg" width="62" height="62" viewBox="0 0 62 62" fill="none"><path d="M47.8657 35.5388H39.255C38.8448 35.5388 38.4747 35.7825 38.3122 36.1586C38.1497 36.5347 38.226 36.971 38.5068 37.2699C39.0554 37.8522 39.3573 38.629 39.3573 39.4559C39.3573 41.2272 37.917 42.668 36.1458 42.668C34.3745 42.668 32.9332 41.2272 32.9332 39.4559C32.9332 38.627 33.2381 37.8532 33.7907 37.2774C34.0766 36.9806 34.1568 36.5423 33.9954 36.1636C33.8339 35.7845 33.4618 35.5388 33.0505 35.5388H25.4659V29.7911C26.0517 30.0113 26.6805 30.1261 27.3295 30.1261C30.2331 30.1261 32.5952 27.7636 32.5952 24.8599C32.5952 21.9558 30.2331 19.5932 27.3295 19.5932C26.6826 19.5932 26.0527 19.7076 25.4659 19.9267V13.1535C25.4659 12.5863 25.0066 12.1265 24.4389 12.1265H1.02706C0.45937 12.1265 0 12.5863 0 13.1535V59.9927C0 60.5599 0.45937 61.0197 1.02706 61.0197H47.8657C48.4334 61.0197 48.8928 60.5599 48.8928 59.9927V36.5658C48.8928 35.9986 48.4334 35.5388 47.8657 35.5388ZM2.05412 14.1806H23.4118V21.7497C23.4118 22.1594 23.6555 22.53 24.0316 22.6925C24.4078 22.8549 24.8441 22.7787 25.143 22.4974C25.7257 21.9492 26.502 21.6473 27.3295 21.6473C29.1008 21.6473 30.5411 23.0886 30.5411 24.8599C30.5411 26.6312 29.1008 28.072 27.3295 28.072C26.5 28.072 25.7257 27.7676 25.15 27.2144C24.8531 26.9286 24.4128 26.8504 24.0367 27.0103C23.6575 27.1718 23.4118 27.5434 23.4118 27.9552V35.5388H17.6647C17.8843 34.9535 17.9997 34.3246 17.9997 33.6762C17.9997 30.7721 15.6366 28.4095 12.733 28.4095C9.8293 28.4095 7.46626 30.7721 7.46626 33.6762C7.46626 34.3226 7.5806 34.9525 7.80026 35.5388H2.05412V14.1806ZM2.05412 37.5929H9.62369C10.0339 37.5929 10.404 37.3492 10.5665 36.973C10.6071 36.879 10.6328 36.7812 10.6442 36.6827C10.6781 36.3871 10.5826 36.0855 10.3719 35.8617C9.95969 35.4243 9.68688 34.8783 9.57617 34.2841C9.53919 34.0861 9.52038 33.8827 9.52038 33.6762C9.52038 31.9049 10.9617 30.4636 12.733 30.4636C14.5042 30.4636 15.9455 31.9049 15.9455 33.6762C15.9455 34.5052 15.6406 35.2785 15.088 35.8542C14.8021 36.1511 14.7219 36.5894 14.8834 36.968C15.0449 37.3472 15.417 37.5929 15.8282 37.5929H23.4118V43.3405C22.8271 43.1204 22.1972 43.0055 21.5492 43.0055C18.6456 43.0055 16.2825 45.3681 16.2825 48.2722C16.2825 51.1759 18.6456 53.5384 21.5492 53.5384C22.1962 53.5384 22.8261 53.4241 23.4118 53.2054V58.9656H2.05412V37.5929ZM46.8386 58.9656H25.4659V51.382C25.4659 50.9723 25.2222 50.6017 24.8461 50.4392C24.47 50.2772 24.0337 50.3534 23.7348 50.6343C23.153 51.1824 22.3767 51.4843 21.5492 51.4843C19.778 51.4843 18.3367 50.0435 18.3367 48.2722C18.3367 46.5009 19.778 45.0596 21.5492 45.0596C22.3787 45.0596 23.152 45.3641 23.7267 45.9172C24.0226 46.2021 24.4609 46.2823 24.8411 46.1223C25.2202 45.9608 25.4659 45.5887 25.4659 45.177V37.5929H31.2141C30.9944 38.1781 30.8791 38.8075 30.8791 39.4559C30.8791 42.3596 33.2421 44.7221 36.1458 44.7221C39.0494 44.7221 41.4115 42.3596 41.4115 39.4559C41.4115 38.809 41.2971 38.1791 41.0785 37.5929H46.8386V58.9656Z" fill="black"></path><path d="M55.8353 0.775039C55.6948 0.224398 55.1342 -0.108595 54.5865 0.032325L31.8788 5.793C31.615 5.8597 31.3884 6.0292 31.249 6.2629C31.1095 6.4971 31.0694 6.77693 31.1356 7.04122L33.2499 15.3736C33.3512 15.7707 33.6782 16.0701 34.0834 16.1348C34.4836 16.2005 34.8918 16.0175 35.1125 15.6725C35.5418 14.9974 36.2198 14.514 37.0212 14.3109C38.7363 13.8761 40.4895 14.9182 40.9248 16.6348C41.1354 17.4623 41.0081 18.3254 40.5677 19.0651C40.1274 19.8053 39.4283 20.3283 38.6009 20.5385C37.7995 20.7416 36.973 20.6378 36.279 20.2426C35.9219 20.0395 35.4776 20.0681 35.1486 20.3183C34.8216 20.5675 34.6742 20.9888 34.7755 21.388L36.8928 29.7344C37.0332 30.285 37.5939 30.615 38.1415 30.4771L44.7081 28.8111C44.6389 29.433 44.682 30.0714 44.8405 30.6998C45.4453 33.0814 47.5947 34.6716 49.9467 34.6716C50.374 34.6716 50.8083 34.6189 51.2416 34.5091C54.0549 33.795 55.765 30.9244 55.0509 28.1085C54.8914 27.4817 54.6257 26.8999 54.2696 26.3859L60.8492 24.7164C61.3988 24.577 61.7318 24.0183 61.5924 23.4682L55.8353 0.775039ZM51.9968 24.8433C51.5996 24.9441 51.3007 25.2711 51.2355 25.6758C51.1703 26.0805 51.3519 26.4852 51.6979 26.7053C52.3729 27.1346 52.8564 27.8126 53.06 28.614C53.4953 30.3312 52.4532 32.0824 50.7361 32.5182C49.9076 32.7283 49.045 32.6014 48.3048 32.1606C47.5656 31.7203 47.042 31.0217 46.8324 30.1947C46.6288 29.3914 46.7341 28.5664 47.1283 27.8718C47.3319 27.5138 47.3018 27.0694 47.0521 26.742C46.8555 26.4832 46.5516 26.3372 46.2356 26.3372C46.1514 26.3372 46.0671 26.3473 45.9829 26.3688L38.632 28.2334L37.2188 22.6628C37.8406 22.7315 38.4775 22.6879 39.1064 22.5294C40.4654 22.1844 41.6119 21.3273 42.333 20.1162C43.0542 18.9046 43.2608 17.4889 42.9167 16.1293C42.2016 13.3149 39.3321 11.6058 36.5157 12.32C35.8888 12.4789 35.3071 12.7442 34.7925 13.1008L33.3793 7.53118L54.0961 2.27601L59.3487 22.9782L51.9968 24.8433Z" fill="black"></path></svg>