<svg xmlns="http://www.w3.org/2000/svg" width="74" height="51" viewBox="0 0 74 51" fill="none"><path d="M36.6699 17.1878C34.5433 17.1853 32.5046 16.3395 31.0009 14.8358C29.4972 13.3321 28.6514 11.2934 28.6489 9.16681V8.02096C28.6489 5.89367 29.494 3.85351 30.9982 2.34928C32.5024 0.845063 34.5426 0 36.6699 0C38.7972 0 40.8373 0.845063 42.3416 2.34928C43.8458 3.85351 44.6908 5.89367 44.6908 8.02096V9.16681C44.6884 11.2934 43.8426 13.3321 42.3389 14.8358C40.8352 16.3395 38.7964 17.1853 36.6699 17.1878ZM36.6699 2.2917C35.1509 2.29352 33.6947 2.89772 32.6207 3.97177C31.5466 5.04582 30.9424 6.50202 30.9406 8.02096V9.16681C30.9406 10.6863 31.5442 12.1436 32.6187 13.218C33.6931 14.2924 35.1504 14.8961 36.6699 14.8961C38.1894 14.8961 39.6466 14.2924 40.7211 13.218C41.7955 12.1436 42.3991 10.6863 42.3991 9.16681V8.02096C42.3973 6.50202 41.7931 5.04582 40.7191 3.97177C39.645 2.89772 38.1888 2.29352 36.6699 2.2917Z" fill="black"></path><path d="M51.5658 27.5005H49.2741V24.063C49.2741 23.1513 48.9119 22.2769 48.2673 21.6323C47.6226 20.9876 46.7482 20.6254 45.8365 20.6254H27.5029C26.5912 20.6254 25.7169 20.9876 25.0722 21.6323C24.4276 22.2769 24.0654 23.1513 24.0654 24.063V27.5005H21.7737V24.063C21.7755 22.5441 22.3797 21.0879 23.4537 20.0138C24.5278 18.9398 25.984 18.3356 27.5029 18.3337H45.8365C47.3555 18.3356 48.8117 18.9398 49.8857 20.0138C50.9598 21.0879 51.564 22.5441 51.5658 24.063V27.5005Z" fill="black"></path><path d="M43.7512 50.4172C43.5656 50.4171 43.3827 50.3718 43.2184 50.2854L36.6699 46.8479L30.1213 50.2854C29.9321 50.3849 29.7188 50.4295 29.5056 50.4141C29.2923 50.3987 29.0877 50.3239 28.9147 50.1983C28.7417 50.0726 28.6073 49.9011 28.5267 49.7031C28.4462 49.505 28.4226 49.2884 28.4587 49.0777L29.7088 41.7958L24.4116 36.6395C24.2584 36.4903 24.15 36.3011 24.0987 36.0935C24.0473 35.8859 24.0552 35.6681 24.1212 35.4647C24.1873 35.2613 24.3089 35.0804 24.4724 34.9426C24.6359 34.8047 24.8347 34.7154 25.0464 34.6846L32.3684 33.6213L35.6386 26.9925C35.7441 26.8142 35.8943 26.6663 36.0743 26.5637C36.2544 26.461 36.458 26.407 36.6653 26.407C36.8725 26.407 37.0762 26.461 37.2563 26.5637C37.4363 26.6663 37.5865 26.8142 37.692 26.9925L40.9668 33.619L48.2888 34.6824C48.5004 34.7131 48.6993 34.8024 48.8628 34.9403C49.0263 35.0781 49.1479 35.259 49.214 35.4624C49.28 35.6658 49.2878 35.8836 49.2365 36.0912C49.1852 36.2989 49.0768 36.488 48.9236 36.6372L43.6263 41.7935L44.8765 49.0754C44.905 49.2397 44.8973 49.4082 44.8539 49.5692C44.8106 49.7302 44.7326 49.8798 44.6255 50.0076C44.5183 50.1354 44.3846 50.2382 44.2336 50.309C44.0826 50.3797 43.918 50.4166 43.7512 50.4172ZM36.6699 44.406C36.8556 44.4059 37.0385 44.4511 37.2027 44.5378L42.2295 47.1733L41.2705 41.5941C41.2384 41.4111 41.2516 41.223 41.3089 41.0462C41.3662 40.8695 41.4659 40.7094 41.5993 40.5801L45.6648 36.6223L40.0501 35.8064C39.8663 35.7797 39.6917 35.7087 39.5414 35.5995C39.391 35.4903 39.2695 35.3462 39.1873 35.1797L36.6699 30.0863L34.1559 35.1774C34.0736 35.344 33.9521 35.4881 33.8018 35.5972C33.6515 35.7064 33.4769 35.7774 33.2931 35.8041L27.6784 36.62L31.7427 40.5743C31.8761 40.7037 31.9758 40.8638 32.0331 41.0405C32.0904 41.2173 32.1036 41.4054 32.0716 41.5884L31.1125 47.1779L36.1393 44.5424C36.3025 44.4545 36.4846 44.4077 36.6699 44.406Z" fill="black"></path><path d="M67.8142 44.6882C67.6286 44.6881 67.4457 44.6428 67.2814 44.5564L60.7329 41.1188L54.1843 44.5564C53.9951 44.6559 53.7818 44.7005 53.5686 44.6851C53.3553 44.6697 53.1506 44.5949 52.9777 44.4693C52.8047 44.3436 52.6703 44.1721 52.5897 43.9741C52.5092 43.776 52.4856 43.5594 52.5217 43.3487L53.7718 36.0668L48.4745 30.9105C48.3213 30.7613 48.213 30.5721 48.1616 30.3645C48.1103 30.1569 48.1181 29.9391 48.1842 29.7357C48.2502 29.5323 48.3719 29.3514 48.5354 29.2136C48.6989 29.0757 48.8977 28.9864 49.1094 28.9556L56.4313 27.8923L59.7016 21.2635C59.8071 21.0852 59.9573 20.9373 60.1373 20.8347C60.3173 20.732 60.521 20.678 60.7283 20.678C60.9355 20.678 61.1392 20.732 61.3192 20.8347C61.4993 20.9373 61.6494 21.0852 61.755 21.2635L65.0298 27.89L72.3518 28.9534C72.5634 28.9841 72.7622 29.0734 72.9257 29.2113C73.0892 29.3491 73.2109 29.53 73.277 29.7334C73.343 29.9368 73.3508 30.1546 73.2995 30.3622C73.2482 30.5699 73.1398 30.759 72.9866 30.9082L67.6893 36.0645L68.9394 43.3464C68.968 43.5107 68.9603 43.6792 68.9169 43.8402C68.8736 44.0012 68.7956 44.1508 68.6885 44.2786C68.5813 44.4064 68.4476 44.5092 68.2966 44.58C68.1456 44.6507 67.981 44.6876 67.8142 44.6882ZM60.7329 38.677C60.9186 38.6769 61.1015 38.7221 61.2657 38.8088L66.2925 41.4443L65.3335 35.8651C65.3014 35.6821 65.3146 35.494 65.3719 35.3172C65.4292 35.1405 65.5289 34.9804 65.6623 34.851L69.7278 30.8933L64.1131 30.0774C63.9293 30.0507 63.7547 29.9797 63.6043 29.8705C63.454 29.7613 63.3325 29.6172 63.2503 29.4507L60.7329 24.3573L58.2189 29.4484C58.1366 29.615 58.0151 29.7591 57.8648 29.8682C57.7145 29.9774 57.5399 30.0484 57.356 30.0751L51.7414 30.891L55.8057 34.8453C55.9391 34.9747 56.0388 35.1347 56.0961 35.3115C56.1534 35.4883 56.1666 35.6764 56.1346 35.8594L55.1755 41.4489L60.2023 38.8134C60.3655 38.7255 60.5476 38.6787 60.7329 38.677Z" fill="black"></path><path d="M19.6883 44.6882C19.5027 44.6881 19.3198 44.6428 19.1555 44.5564L15.5117 42.6428L12.607 41.1177L6.05845 44.5553C5.86921 44.6547 5.65592 44.6993 5.44268 44.6839C5.22944 44.6685 5.02476 44.5938 4.85178 44.4681C4.67881 44.3425 4.54443 44.1709 4.46386 43.9729C4.38328 43.7749 4.35971 43.5583 4.39582 43.3475L5.64594 36.0656L0.346379 30.9082C0.193175 30.759 0.0847859 30.5699 0.0334728 30.3622C-0.0178402 30.1546 -0.0100288 29.9368 0.0560233 29.7334C0.122075 29.53 0.243732 29.3491 0.40723 29.2113C0.570728 29.0734 0.769542 28.9841 0.98118 28.9534L8.30317 27.89L11.5757 21.2635C11.6812 21.0852 11.8314 20.9373 12.0114 20.8347C12.1915 20.732 12.3951 20.678 12.6024 20.678C12.8097 20.678 13.0133 20.732 13.1934 20.8347C13.3734 20.9373 13.5236 21.0852 13.6291 21.2635L16.9039 27.89L24.2259 28.9534C24.4375 28.9841 24.6364 29.0734 24.7999 29.2113C24.9634 29.3491 25.085 29.53 25.1511 29.7334C25.2171 29.9368 25.2249 30.1546 25.1736 30.3622C25.1223 30.5699 25.0139 30.759 24.8607 30.9082L19.5634 36.0645L20.8136 43.3464C20.8421 43.5107 20.8344 43.6792 20.791 43.8402C20.7477 44.0012 20.6697 44.1508 20.5626 44.2786C20.4554 44.4064 20.3217 44.5092 20.1707 44.58C20.0197 44.6507 19.8551 44.6876 19.6883 44.6882ZM16.5774 40.6147L18.1667 41.4489L17.2076 35.8651C17.1755 35.6821 17.1887 35.494 17.246 35.3172C17.3034 35.1405 17.4031 34.9804 17.5364 34.851L21.6019 30.8933L15.9872 30.0774C15.8034 30.0507 15.6288 29.9797 15.4785 29.8705C15.3282 29.7613 15.2066 29.6172 15.1244 29.4507L12.607 24.3573L10.093 29.4484C10.0108 29.615 9.88925 29.7591 9.73894 29.8682C9.58862 29.9774 9.41402 30.0484 9.23016 30.0751L3.61549 30.891L7.67982 34.8453C7.8132 34.9747 7.9129 35.1347 7.97022 35.3115C8.02754 35.4883 8.04075 35.6764 8.00868 35.8594L7.04961 41.4489L12.0765 38.8134C12.2408 38.7271 12.4236 38.682 12.6093 38.682C12.7949 38.682 12.9778 38.7271 13.1421 38.8134L16.5774 40.6147Z" fill="black"></path></svg>